<svg xmlns="http://www.w3.org/2000/svg" viewBox="0 0 1082.77 1083.13"><defs><style>.cls-1{fill:none;stroke:#00aaa6;stroke-miterlimit:10;stroke-width:9.76px;}.cls-2{fill:#303952;}</style></defs><title>LM Logo Colour</title><g id="Layer_2" data-name="Layer 2"><g id="Layer_1-2" data-name="Layer 1"><path class="cls-1" d="M1077.81,541.56H847.56A28.6,28.6,0,0,1,819,513V474.58a32.65,32.65,0,0,0-32.65-32.65h0a32.65,32.65,0,0,0-32.65,32.65V513a28.6,28.6,0,0,1-28.6,28.6h0A28.6,28.6,0,0,1,696.45,513V377.16a32.64,32.64,0,0,0-32.64-32.64h0a32.64,32.64,0,0,0-32.65,32.64V513a28.6,28.6,0,0,1-28.6,28.6h0A28.6,28.6,0,0,1,574,513V269.64A32.65,32.65,0,0,0,541.3,237h0a32.64,32.64,0,0,0-32.64,32.65V513a28.6,28.6,0,0,1-28.61,28.6h0a28.6,28.6,0,0,1-28.6-28.6V377.16a32.64,32.64,0,0,0-32.65-32.64h0a32.64,32.64,0,0,0-32.64,32.64V513a28.6,28.6,0,0,1-28.61,28.6h0A28.6,28.6,0,0,1,329,513V474.58a32.65,32.65,0,0,0-32.65-32.65h0a32.65,32.65,0,0,0-32.65,32.65V513a28.6,28.6,0,0,1-28.6,28.6H5"/><path class="cls-2" d="M151.87,696.36c-3.56.55-13.87,1.24-26.77,1.24-14.69,0-29.25-2.89-29.25-25.55V597.34a2.75,2.75,0,0,1,2.75-2.75h7a2.76,2.76,0,0,1,2.75,2.75v74.71c0,10.44,2.33,14.28,16.89,14.28h26.5a1.49,1.49,0,0,1,1.52,1.65v6.45A2,2,0,0,1,151.87,696.36Z"/><path class="cls-2" d="M233.44,696.91c-5.22.54-18.68.69-26.78.69-19.23,0-29.25-7.29-29.25-25.55V619.18c0-18.26,10-25.55,29.25-25.55,8.1,0,21,.28,26.78.83a1.94,1.94,0,0,1,1.38,1.92v6.87a1.49,1.49,0,0,1-1.52,1.64H206.8c-14.56,0-16.89,3.85-16.89,14.29v19.08h42.15a2.76,2.76,0,0,1,2.76,2.75v5.22a2.76,2.76,0,0,1-2.76,2.75H189.91v23.07c0,10.44,2.33,14.28,16.89,14.28h26.5a1.49,1.49,0,0,1,1.52,1.65v7A2,2,0,0,1,233.44,696.91Z"/><path class="cls-2" d="M326.94,695.54a157.23,157.23,0,0,1-27.33,2.06c-17.17,0-35.57-11.27-35.57-42.72v-18.4c0-33.37,19.22-42.85,36.8-42.85a157.63,157.63,0,0,1,26.1,1.93c1.23.13,2.34.68,2.34,2.06v6.86c0,1-.56,1.37-1.8,1.37h-.54c-8.1-.68-14.42-1-26.1-1-12.76,0-24.3,6.87-24.3,31.59v18.4c0,22.66,10.3,31.59,23.07,31.59,8.38,0,14-.55,17.3-.83V646.37a2.54,2.54,0,0,1,2.47-2.75h7.42a2.74,2.74,0,0,1,2.61,2.75v46.14A3,3,0,0,1,326.94,695.54Z"/><path class="cls-2" d="M375.94,696.63h-7.55a2.62,2.62,0,0,1-2.47-2.74V597.21a2.5,2.5,0,0,1,2.47-2.62h7.55a2.51,2.51,0,0,1,2.48,2.62v96.68A2.61,2.61,0,0,1,375.94,696.63Z"/><path class="cls-2" d="M477.83,605.31H451.06v88.58a2.62,2.62,0,0,1-2.48,2.74H441a2.62,2.62,0,0,1-2.47-2.74V605.31H411.77c-1.5,0-2.74-.69-2.74-2.2v-6.05a2.62,2.62,0,0,1,2.74-2.47h66.06a2.42,2.42,0,0,1,2.61,2.47v6.05C480.44,604.48,479.34,605.31,477.83,605.31Z"/><path class="cls-2" d="M637.79,696.63h-6.73a2.75,2.75,0,0,1-2.74-2.74V612.45c0-.28,0-.41-.15-.41s-.13,0-.26.27L608.26,653c-1.37,2.75-2.74,4-6.18,4h-6.32c-3.43,0-4.8-1.23-6.17-4L570,612.31c-.13-.27-.13-.27-.28-.27s-.13.13-.13.41v81.44a2.76,2.76,0,0,1-2.75,2.74h-6.73a2.75,2.75,0,0,1-2.74-2.74V598.58a4,4,0,0,1,4-4h8.94c2.46,0,3.56.56,4.39,2.34L597.28,644c.55,1.24,1,1.52,1.65,1.52s1.09-.28,1.65-1.52l22.66-47.1c.82-1.78,1.91-2.34,4.39-2.34h8.92a4,4,0,0,1,4,4v95.31A2.76,2.76,0,0,1,637.79,696.63Z"/><path class="cls-2" d="M710.27,697.6c-22.24,0-35.16-11.82-35.16-38.05V597.21a2.62,2.62,0,0,1,2.62-2.62h7.41a2.61,2.61,0,0,1,2.61,2.62v62.34c0,17.71,5.49,27.33,22.52,27.33s22.53-9.47,22.53-27.33V597.21a2.61,2.61,0,0,1,2.61-2.62h7.41a2.61,2.61,0,0,1,2.61,2.62v62.34C745.43,685.78,732.52,697.6,710.27,697.6Z"/><path class="cls-2" d="M804.19,697.6a137.34,137.34,0,0,1-22.81-1.93c-2.33-.41-2.6-1-2.6-2.47v-5.5a2.12,2.12,0,0,1,2.34-2.19h.41c6.31.54,16.34.82,22.66.82,16.48,0,20.87-6.59,20.87-16.21,0-6.86-4-10.7-16.48-18.4l-13.33-8.1c-12.63-7.69-19-14.7-19-25.68,0-16.61,12-24.31,32.82-24.31a186.68,186.68,0,0,1,23.9,1.65c1.38.28,2.34,1,2.34,2.34v5.9a2.13,2.13,0,0,1-2.34,2.2h-.27c-6-.41-15.66-.83-23.63-.83-14.13,0-20.18,3-20.18,13.05,0,6.45,4.53,10.3,15,16.62l12.63,7.55c15.93,9.48,21.56,17,21.56,28C838.1,683.31,831.24,697.6,804.19,697.6Z"/><path class="cls-2" d="M880.79,696.63h-7.55a2.62,2.62,0,0,1-2.47-2.74V597.21a2.5,2.5,0,0,1,2.47-2.62h7.55a2.51,2.51,0,0,1,2.48,2.62v96.68A2.61,2.61,0,0,1,880.79,696.63Z"/><path class="cls-2" d="M976.37,695.8c-5.77,1.11-11.13,1.8-22.8,1.8-16.89,0-36.26-9.07-36.26-42.44V636.07c0-33.65,19.37-42.44,36.26-42.44a148,148,0,0,1,23.07,2.2c1.24.14,2.19.55,2.19,1.79v7c0,.82-.26,1.51-1.64,1.51h-.41c-4.94-.41-15.1-1.24-23.07-1.24-13.46,0-23.9,7.84-23.9,31.18v19.09c0,23.07,10.44,31.17,23.9,31.17,7.82,0,17.71-.69,22.66-1.1h.55c1.5,0,2.19.69,2.19,2.2v5.63C979.11,694.71,977.88,695.54,976.37,695.8Z"/><ellipse class="cls-1" cx="541.39" cy="541.56" rx="536.51" ry="536.68"/></g></g></svg>